<svg width="46" height="133" viewBox="0 0 46 133" fill="none" xmlns="http://www.w3.org/2000/svg">
<path d="M5.25206e-06 126.623L44.608 126.623L44.608 132.447L5.50664e-06 132.447L5.25206e-06 126.623ZM26.944 101.81C23.36 101.81 20.224 101.085 17.536 99.634C14.8053 98.1833 12.6933 96.1993 11.2 93.682C9.70667 91.122 8.96 88.2847 8.96 85.17C8.96 82.098 9.62134 79.4313 10.944 77.17C12.2667 74.9087 13.9307 73.2233 15.936 72.114L9.536 72.114L9.536 66.226L44.608 66.226L44.608 72.114L38.08 72.114C40.128 73.266 41.8347 74.994 43.2 77.298C44.5227 79.5593 45.184 82.2047 45.184 85.234C45.184 88.3487 44.416 91.1647 42.88 93.682C41.344 96.1993 39.1893 98.1833 36.416 99.634C33.6427 101.085 30.4853 101.81 26.944 101.81ZM27.008 72.114C24.3627 72.114 22.0587 72.6473 20.096 73.714C18.1333 74.7807 16.64 76.2313 15.616 78.066C14.5493 79.858 14.016 81.842 14.016 84.018C14.016 86.194 14.528 88.178 15.552 89.97C16.576 91.762 18.0693 93.1913 20.032 94.258C21.9947 95.3247 24.2987 95.858 26.944 95.858C29.632 95.858 31.9787 95.3247 33.984 94.258C35.9467 93.1913 37.4613 91.762 38.528 89.97C39.552 88.178 40.064 86.194 40.064 84.018C40.064 81.842 39.552 79.858 38.528 78.066C37.4613 76.2313 35.9467 74.7807 33.984 73.714C31.9787 72.6473 29.6533 72.114 27.008 72.114ZM8.896 14.208C8.896 11.4773 9.472 9.04534 10.624 6.91201C11.7333 4.77868 13.4187 3.09334 15.68 1.85601C17.9413 0.618674 20.6933 6.00834e-06 23.936 5.8666e-06L44.608 4.963e-06L44.608 5.76001L24.768 5.76001C21.2693 5.76001 18.6027 6.63468 16.768 8.38401C14.8907 10.0907 13.952 12.416 13.952 15.36C13.952 18.3893 14.9333 20.8 16.896 22.592C18.816 24.384 21.6107 25.28 25.28 25.28L44.608 25.28L44.608 31.04L24.768 31.04C21.2693 31.04 18.6027 31.9147 16.768 33.664C14.8907 35.3707 13.952 37.696 13.952 40.64C13.952 43.6693 14.9333 46.08 16.896 47.872C18.816 49.664 21.6107 50.56 25.28 50.56L44.608 50.56L44.608 56.384L9.536 56.384L9.536 50.56L14.592 50.56C12.7573 49.408 11.3493 47.872 10.368 45.952C9.38667 43.9893 8.896 41.8347 8.896 39.488C8.896 36.544 9.55733 33.9413 10.88 31.68C12.2027 29.4187 14.144 27.7333 16.704 26.624C14.2293 25.6427 12.3093 24.0213 10.944 21.76C9.57867 19.4987 8.896 16.9813 8.896 14.208Z" fill="white"/>
</svg>
